<svg version="1.1" id="Layer_1" xmlns="http://www.w3.org/2000/svg" xmlns:xlink="http://www.w3.org/1999/xlink" x="0px" y="0px"
	 width="100%" viewBox="0 0 1024 400" enable-background="new 0 0 1024 400" xml:space="preserve">
<path fill="#000000" opacity="1.000000" stroke="none" 
	d="
M454.128784,377.071991 
	C440.763428,373.084656 428.204437,368.233185 416.790131,360.798340 
	C409.821686,356.259308 408.654480,352.341553 411.953674,344.712677 
	C416.866394,333.352722 425.114380,324.802643 434.952545,317.599731 
	C436.515442,316.455444 438.529327,315.833435 439.762421,313.477509 
	C436.597809,312.795746 433.729095,313.600555 430.849457,313.759766 
	C416.634033,314.545715 403.297180,311.934937 391.768097,303.023010 
	C378.953583,293.117493 374.967834,279.571594 376.142365,264.037384 
	C376.685699,256.850922 378.704224,249.962326 380.984650,243.181427 
	C382.225281,239.492386 381.385529,237.748352 377.505188,236.699127 
	C371.400421,235.048431 368.741974,231.273529 368.701691,225.003723 
	C368.633118,214.337524 368.634918,203.670242 368.705536,193.004074 
	C368.744537,187.111786 371.278198,182.721375 376.435944,181.498718 
	C382.287048,180.111694 383.553467,176.201843 383.694702,171.263245 
	C384.657623,137.594666 397.177704,109.036972 422.054016,86.300858 
	C443.208069,66.966759 468.511902,56.886120 497.010742,54.644306 
	C499.762756,54.427826 502.569916,54.384491 505.894165,52.925369 
	C500.389893,47.626278 496.132874,42.199528 497.286255,34.472359 
	C497.985687,29.786465 500.204803,26.002838 503.975342,23.167706 
	C511.340729,17.629663 521.299377,18.681190 527.430359,25.597498 
	C534.630432,33.719833 533.257568,41.886425 522.819641,52.889202 
	C523.282837,54.967003 525.030640,54.578651 526.422546,54.623543 
	C530.948547,54.769501 535.510437,55.239937 539.678589,56.833450 
	C547.713196,59.905155 556.381653,59.739319 564.480774,62.219357 
	C593.639587,71.148125 612.932129,91.172134 626.098877,117.776062 
	C634.113953,133.970856 638.018433,151.250366 638.162964,169.349655 
	C638.224060,177.001556 639.311218,178.586655 646.363647,181.519669 
	C651.046814,183.467346 653.286865,187.094391 653.309326,192.068771 
	C653.360535,203.401794 653.373901,214.735413 653.317322,226.068344 
	C653.290833,231.384735 650.541199,235.164902 645.519287,236.387497 
	C640.483521,237.613495 640.139343,240.153793 641.545166,244.380814 
	C645.367310,255.872604 647.785645,267.564301 644.981628,279.708527 
	C640.755432,298.011261 624.587708,311.263733 604.825500,313.456909 
	C597.327332,314.289062 589.951294,313.132446 582.459229,313.077881 
	C582.359070,315.536774 584.240173,315.684265 585.344604,316.433960 
	C595.599976,323.395203 604.071289,331.941620 609.306519,343.342621 
	C613.348328,352.144592 611.984314,356.659882 603.716187,361.751434 
	C585.685242,372.854950 565.800903,378.989227 545.086060,382.022095 
	C514.653320,386.477753 484.338379,385.646515 454.128784,377.071991 
M594.325989,196.225220 
	C593.487854,193.813385 593.751282,191.096359 590.875488,189.431427 
	C572.006409,178.507156 559.148376,162.363770 550.651428,142.499542 
	C549.895203,140.731735 549.362427,138.465012 546.869141,138.341171 
	C544.604370,138.228668 543.923096,140.296417 543.003906,141.792969 
	C527.849670,166.466049 505.621552,181.411087 478.163055,189.357178 
	C463.508362,193.598038 448.461914,195.023239 433.367340,196.165024 
	C430.175232,196.406494 428.442719,197.412735 428.132446,200.759293 
	C427.826233,204.062500 427.165131,207.332581 426.666351,210.618210 
	C422.164154,240.273743 435.716858,268.859558 461.700409,282.640045 
	C492.233948,298.833588 523.679932,299.086639 555.002808,285.181366 
	C577.593201,275.152649 591.399353,257.466125 595.162170,232.877335 
	C596.975647,221.026794 596.221924,208.965149 594.325989,196.225220 
M573.733765,347.791260 
	C565.804810,330.777832 554.459229,316.854980 537.684021,307.803558 
	C536.858765,307.358246 536.005371,306.506256 535.690308,305.650330 
	C533.961121,300.952698 530.529419,301.083435 526.379089,301.637054 
	C516.288086,302.983093 506.115509,303.130859 496.019867,301.736938 
	C491.683472,301.138184 488.137421,301.152893 485.944885,305.701904 
	C485.418274,306.794525 484.153412,308.030273 483.036621,308.256989 
	C476.628479,309.557678 473.106293,314.685455 468.772247,318.688843 
	C457.645142,328.967072 449.671936,341.337372 445.404266,355.877777 
	C442.632477,365.321442 442.912170,365.407837 452.105652,368.290985 
	C453.852478,368.838806 455.604370,369.374207 457.368835,369.861359 
	C483.399994,377.048035 509.892487,378.228638 536.589172,375.419220 
	C549.348755,374.076508 561.818420,371.062347 574.026001,366.979675 
	C577.610474,365.780884 578.929871,364.046753 577.716370,360.406006 
	C576.402588,356.464172 575.246399,352.469788 573.733765,347.791260 
M404.965027,209.500000 
	C404.965576,201.516739 405.060425,193.532013 404.935669,185.550720 
	C404.842316,179.578018 403.054291,178.182938 396.298584,178.264069 
	C390.050720,178.339096 388.300385,179.866730 388.276764,185.696838 
	C388.214111,201.164246 388.212036,216.632095 388.252502,232.099609 
	C388.268219,238.108994 389.927612,239.631989 396.087067,239.677902 
	C402.969788,239.729218 404.846619,238.178848 404.939117,231.954666 
	C405.045441,224.804565 404.964874,217.651672 404.965027,209.500000 
M620.659607,239.046494 
	C633.812195,241.387466 633.936951,237.083282 633.777771,228.816315 
	C633.499573,214.367722 633.739197,199.909805 633.659607,185.456375 
	C633.628662,179.837189 631.752625,178.325638 625.392029,178.289993 
	C619.005615,178.254196 617.158630,179.674500 617.114441,185.409744 
	C616.994202,201.025574 617.041992,216.642746 617.036743,232.259384 
	C617.035889,234.824265 617.342834,237.281418 620.659607,239.046494 
M480.050201,76.406128 
	C493.533020,72.655174 507.356720,71.843704 521.407776,72.470734 
	C521.357239,67.741096 515.724487,68.359619 515.670715,64.225845 
	C515.629211,61.037029 517.000061,57.395866 514.079163,54.220615 
	C511.249481,56.900158 512.534363,60.040554 512.340637,62.811752 
	C512.126099,65.880989 511.216858,68.195175 507.679840,67.859970 
	C501.145905,67.240753 494.725098,68.158463 488.385803,69.355804 
	C439.473877,78.594185 402.827942,113.207993 394.585358,163.298203 
	C394.312256,164.957794 393.548889,166.955551 396.722015,168.568665 
	C406.335815,121.767036 432.904572,90.159531 480.050201,76.406128 
M641.292358,221.040131 
	C641.478699,222.630508 640.840759,224.382538 642.247070,225.820267 
	C644.533508,226.260498 645.444458,225.168762 645.813538,222.960953 
	C647.773865,211.232193 645.894775,193.193329 641.888000,190.645081 
	C640.714294,200.643082 641.549316,210.413956 641.292358,221.040131 
M380.555603,222.762100 
	C380.582092,214.317978 380.635803,205.873749 380.607666,197.429810 
	C380.603088,196.058472 381.061005,194.082336 378.836517,193.984512 
	C376.577942,193.885208 376.250214,195.624176 376.329254,197.427856 
	C376.778351,207.680557 374.513367,218.171753 378.942963,228.200500 
	C380.586548,226.924652 379.960968,225.070694 380.555603,222.762100 
M517.294678,42.617748 
	C517.839966,40.346039 518.771729,37.704956 515.986938,36.490528 
	C513.667908,35.479221 512.674683,34.241722 512.608826,31.749674 
	C512.570984,30.318964 511.289734,29.332367 509.778687,29.623091 
	C508.363525,29.895361 507.218933,31.045780 507.781006,32.516029 
	C508.564453,34.565395 507.492462,35.803673 506.737762,37.484547 
	C505.197113,40.915848 506.682709,43.728226 509.966858,45.233513 
	C512.655701,46.465969 515.783936,47.968113 517.294678,42.617748 
z"/>
<path fill="#000000" opacity="1.000000" stroke="none" 
	d="
M457.419006,234.910614 
	C453.214935,232.101929 450.488922,228.611053 449.520721,224.011719 
	C448.649689,219.874146 448.562256,215.589874 444.385071,212.824020 
	C442.871185,211.821594 442.904236,209.538010 444.148163,207.830109 
	C445.293793,206.257187 446.919983,205.976761 448.580505,206.771530 
	C450.437927,207.660553 451.509460,206.915558 452.882751,205.642365 
	C460.105072,198.946411 468.902649,198.394043 475.828125,204.020660 
	C483.121002,209.945724 485.046997,220.763123 480.237885,228.788315 
	C475.495056,236.702850 467.240417,239.020889 457.419006,234.910614 
M458.106506,215.608383 
	C459.023132,217.199905 460.388336,218.051147 462.204834,217.600937 
	C464.510895,217.029373 466.032654,215.627991 465.740295,213.031250 
	C465.486023,210.772614 464.116760,209.180145 461.846863,209.459381 
	C458.830780,209.830414 457.288116,211.785416 458.106506,215.608383 
z"/>
<path fill="#000000" opacity="1.000000" stroke="none" 
	d="
M573.866455,216.278076 
	C573.341187,218.543442 573.129211,220.520950 572.749329,222.465652 
	C570.887024,231.999435 563.116577,238.237503 554.492737,237.172134 
	C545.653992,236.080215 538.897644,227.901108 539.325928,218.484894 
	C539.666138,211.006622 542.623413,204.840714 549.799988,201.702820 
	C556.923462,198.588196 563.430298,200.069672 569.025574,205.450912 
	C569.993713,206.381989 570.841064,207.472351 572.421509,206.939697 
	C574.816772,206.132401 577.150818,205.818985 578.186462,208.816864 
	C579.185303,211.708267 577.407532,213.510605 575.273071,215.051636 
	C574.870483,215.342331 574.491882,215.666428 573.866455,216.278076 
M548.389404,215.006180 
	C549.537720,217.590042 551.482361,218.420013 554.017151,217.231750 
	C555.786194,216.402451 556.934875,214.841660 556.367981,212.807831 
	C555.793030,210.745239 554.284424,209.280380 552.016846,209.462479 
	C549.206055,209.688202 548.096191,211.572571 548.389404,215.006180 
z"/>
<path fill="#000000" opacity="1.000000" stroke="none" 
	d="
M515.039734,259.225159 
	C518.375488,258.282837 520.858337,256.745636 522.986938,254.510361 
	C524.469788,252.953247 526.351379,252.087280 528.248657,253.825699 
	C530.135681,255.554810 529.979797,257.543701 528.610718,259.640991 
	C521.982788,269.794525 499.984009,269.775177 493.361359,259.599274 
	C492.125824,257.700836 491.879272,255.818253 493.546448,254.166153 
	C495.515381,252.215088 497.488708,252.868134 499.180145,254.676300 
	C503.446747,259.237274 508.714417,260.393646 515.039734,259.225159 
z"/>
<path fill="#000000" opacity="1.000000" stroke="none" 
	d="
M559.527222,175.831009 
	C563.735596,176.737610 567.282959,178.085693 570.272949,180.627487 
	C572.206787,182.271423 573.534973,184.284790 571.794617,186.653595 
	C570.171631,188.862503 567.968750,188.243912 566.055420,186.842453 
	C560.988770,183.131210 555.503784,182.307037 549.536621,184.164963 
	C547.323975,184.853867 545.051575,184.965622 544.099854,182.311768 
	C543.070618,179.441727 545.061035,178.041748 547.312317,177.009048 
	C551.091675,175.275421 555.108582,175.662903 559.527222,175.831009 
z"/>
<path fill="#000000" opacity="1.000000" stroke="none" 
	d="
M500.835632,327.547485 
	C498.135345,323.772949 499.576263,322.135529 503.354950,321.763397 
	C511.928284,320.919067 513.053528,321.608704 515.289673,329.424530 
	C515.736389,330.985779 516.563843,331.676575 518.051880,331.744904 
	C519.548035,331.813599 521.047119,331.836945 522.545044,331.841370 
	C532.910339,331.871887 535.525696,334.197144 536.381592,344.351807 
	C536.530518,346.117889 536.998230,347.335541 538.569275,348.475372 
	C542.522095,351.343323 542.658813,354.016693 538.882080,356.640289 
	C536.934753,357.993042 536.475891,359.489410 536.315735,361.599426 
	C535.833679,367.951447 533.030518,371.025269 526.710754,371.537689 
	C516.245911,372.386200 505.740692,372.166199 495.269745,371.658569 
	C489.393188,371.373627 486.167358,367.890198 485.774475,362.061005 
	C485.587585,359.288147 485.291351,357.176788 482.575195,355.382202 
	C480.071320,353.727844 479.647278,350.556702 482.732635,348.836426 
	C485.256104,347.429504 485.652832,345.660736 485.732544,343.175903 
	C485.979156,335.488800 489.388641,332.322510 497.258881,331.805664 
	C500.572205,331.588104 504.208008,332.785553 507.437805,330.042114 
	C505.863861,327.286102 502.989044,328.895203 500.835632,327.547485 
M509.505157,339.139343 
	C505.343750,339.155579 501.181671,339.130676 497.021210,339.201996 
	C494.035034,339.253174 492.336884,340.829224 492.304779,343.845734 
	C492.246338,349.337708 492.251801,354.831757 492.335510,360.323334 
	C492.378204,363.122070 493.962952,364.614014 496.766266,364.620209 
	C506.087769,364.640747 515.409424,364.632416 524.730896,364.603851 
	C528.253784,364.593079 529.818359,362.728088 529.771606,359.246918 
	C529.706787,354.420441 529.672852,349.590485 529.784241,344.765686 
	C529.878418,340.684540 527.917969,339.065582 523.984619,339.153381 
	C519.492493,339.253662 514.996094,339.156647 509.505157,339.139343 
z"/>
<path fill="#000000" opacity="1.000000" stroke="none" 
	d="
M505.057251,354.523621 
	C504.064850,356.578827 502.752319,357.591919 500.911285,356.725281 
	C498.248230,355.471649 498.793060,352.889618 498.786011,350.616241 
	C498.780640,348.881256 499.128479,347.191498 501.061310,346.646362 
	C503.207336,346.041168 504.708954,347.045105 505.081116,349.167358 
	C505.362396,350.771301 505.154083,352.461060 505.057251,354.523621 
z"/>
<path fill="#000000" opacity="1.000000" stroke="none" 
	d="
M523.042114,351.135132 
	C522.903015,353.845734 523.032471,356.389435 519.953369,356.871979 
	C518.501465,357.099548 517.255371,356.133942 517.044739,354.760620 
	C516.633362,352.078247 515.450134,348.643738 518.153503,347.009125 
	C521.540161,344.961395 522.661621,347.784576 523.042114,351.135132 
z"/>
</svg>